<svg width="210" height="36" viewBox="0 0 210 36" xmlns="http://www.w3.org/2000/svg"><path d="M65.97 24.022c0-6.675-5.367-8.343-10.213-9.485-4.845-1.142-6.154-1.755-6.154-3.687 0-1.36 1.09-2.765 4.365-2.765 2.793 0 4.976 1.14 6.938 3.158l4.41-4.302c-2.882-3.025-6.372-4.827-11.128-4.827-6.024 0-10.914 3.424-10.914 9 0 6.057 3.928 7.86 9.557 9.175 5.762 1.317 6.81 2.195 6.81 4.17 0 2.327-1.703 3.337-5.325 3.337-2.924 0-5.673-1.01-7.812-3.513l-4.41 3.952c2.314 3.424 6.767 5.576 11.874 5.576 8.335 0 12.001-3.955 12.001-9.789zm28.587-11.68c0-6.54-4.756-9.746-10.518-9.746H70.683v30.733h6.11V22.44h6.721c6.332 0 11.043-2.985 11.043-10.098zm-6.284.135c0 2.675-1.528 3.992-4.365 3.992h-7.114v-7.9h7.028c2.703 0 4.451 1.228 4.451 3.908zm33.91 20.852L110.572 2.596h-5.933L92.941 33.329h6.549l2.4-6.85h11.171l2.403 6.85h6.719zm-11.216-12.69h-6.98l1.962-5.575c.611-1.799 1.222-3.644 1.527-4.783.306 1.14.916 2.984 1.527 4.783l1.964 5.574zm36.967-11.721c-1.922-3.994-5.41-6.804-11.17-6.804-7.99 0-13.577 6.497-13.577 15.847 0 9.706 5.37 15.85 13.356 15.85 5.544 0 9.208-2.588 11.304-6.936l-5.15-3.074c-1.614 2.721-3.23 3.906-5.98 3.906-4.582 0-7.244-4.216-7.244-9.746 0-5.705 2.617-9.743 7.2-9.743 2.75 0 4.496 1.228 5.588 3.335l5.673-2.635zm25.793 24.41v-6.014h-15.754v-7.421h8.773v-5.97h-8.773V8.612h15.101V2.596h-21.21v30.733h21.863zm26.711-9.306c0-6.675-5.37-8.343-10.212-9.485-4.844-1.142-6.153-1.755-6.153-3.687 0-1.36 1.09-2.765 4.362-2.765 2.792 0 4.976 1.14 6.94 3.158l4.407-4.302c-2.88-3.025-6.371-4.827-11.128-4.827-6.025 0-10.91 3.424-10.91 9 0 6.057 3.926 7.86 9.558 9.175 5.76 1.317 6.807 2.195 6.807 4.17 0 2.327-1.7 3.337-5.323 3.337-2.924 0-5.672-1.01-7.812-3.513l-4.411 3.952c2.316 3.424 6.764 5.576 11.872 5.576 8.34 0 12.003-3.955 12.003-9.789zm9.395 5.619c0-1.759-1.464-3.268-3.21-3.268-1.748 0-3.21 1.509-3.21 3.268 0 1.757 1.462 3.225 3.21 3.225 1.746 0 3.21-1.468 3.21-3.225M.112 8.996v17.932l15.433 8.966 15.433-8.966V8.996L15.545.031.112 8.996z" fill="#FFF" fill-rule="evenodd"/></svg>